<svg xmlns="http://www.w3.org/2000/svg" viewBox="0 0 512 512">
  <defs>
    <linearGradient id="bg" x1="0" y1="0" x2="1" y2="1">
      <stop offset="0%" stop-color="#f59e0b"/>
      <stop offset="45%" stop-color="#a855f7"/>
      <stop offset="100%" stop-color="#0ea5e9"/>
    </linearGradient>
  </defs>
  <rect width="512" height="512" rx="110" fill="url(#bg)"/>
  <!-- Sonne oben links -->
  <circle cx="166" cy="166" r="62" fill="#fff7e6"/>
  <g stroke="#fff7e6" stroke-width="20" stroke-linecap="round">
    <line x1="166" y1="58" x2="166" y2="86"/>
    <line x1="166" y1="246" x2="166" y2="274"/>
    <line x1="58" y1="166" x2="86" y2="166"/>
    <line x1="246" y1="166" x2="274" y2="166"/>
    <line x1="90" y1="90" x2="110" y2="110"/>
    <line x1="222" y1="222" x2="242" y2="242"/>
    <line x1="242" y1="90" x2="222" y2="110"/>
    <line x1="110" y1="222" x2="90" y2="242"/>
  </g>
  <!-- Schneeflocke unten rechts -->
  <g stroke="#eaf6ff" stroke-width="18" stroke-linecap="round">
    <line x1="346" y1="262" x2="346" y2="430"/>
    <line x1="273" y1="304" x2="419" y2="388"/>
    <line x1="273" y1="388" x2="419" y2="304"/>
    <g stroke-width="12">
      <line x1="346" y1="262" x2="322" y2="286"/>
      <line x1="346" y1="262" x2="370" y2="286"/>
      <line x1="346" y1="430" x2="322" y2="406"/>
      <line x1="346" y1="430" x2="370" y2="406"/>
    </g>
  </g>
  <circle cx="346" cy="346" r="22" fill="#eaf6ff"/>
</svg>
