<svg xmlns="http://www.w3.org/2000/svg" viewBox="0 0 512 512">
  <defs>
    <linearGradient id="bg" x1="0" y1="0" x2="1" y2="1">
      <stop offset="0%" stop-color="#0c2a4a"/>
      <stop offset="55%" stop-color="#155e8a"/>
      <stop offset="100%" stop-color="#2dd4bf"/>
    </linearGradient>
  </defs>
  <rect width="512" height="512" rx="110" fill="url(#bg)"/>
  <g stroke="#eaf6ff" stroke-width="26" stroke-linecap="round">
    <line x1="256" y1="86" x2="256" y2="426"/>
    <line x1="109" y1="171" x2="403" y2="341"/>
    <line x1="109" y1="341" x2="403" y2="171"/>
    <g stroke-width="18">
      <line x1="256" y1="86" x2="216" y2="126"/>
      <line x1="256" y1="86" x2="296" y2="126"/>
      <line x1="256" y1="426" x2="216" y2="386"/>
      <line x1="256" y1="426" x2="296" y2="386"/>
      <line x1="109" y1="171" x2="163" y2="161"/>
      <line x1="109" y1="171" x2="119" y2="225"/>
      <line x1="403" y1="341" x2="349" y2="351"/>
      <line x1="403" y1="341" x2="393" y2="287"/>
      <line x1="109" y1="341" x2="119" y2="287"/>
      <line x1="109" y1="341" x2="163" y2="351"/>
      <line x1="403" y1="171" x2="393" y2="225"/>
      <line x1="403" y1="171" x2="349" y2="161"/>
    </g>
  </g>
  <circle cx="256" cy="256" r="34" fill="#eaf6ff"/>
</svg>
